inDegrees=yes
name=ik_S40_A02_T01
DataType=double
version=3
OpenSimVersion=4.3-2021-08-27-4bc7ad9
endheader
time	pelvis_tilt	pelvis_list	pelvis_rotation	pelvis_tx	pelvis_ty	pelvis_tz	hip_flexion_r	hip_adduction_r	hip_rotation_r	knee_angle_r	knee_angle_r_beta	ankle_angle_r	subtalar_angle_r	mtp_angle_r	hip_flexion_l	hip_adduction_l	hip_rotation_l	knee_angle_l	knee_angle_l_beta	ankle_angle_l	subtalar_angle_l	mtp_angle_l	lumbar_extension	lumbar_bending	lumbar_rotation	arm_flex_r	arm_add_r	arm_rot_r	elbow_flex_r	pro_sup_r	wrist_flex_r	wrist_dev_r	arm_flex_l	arm_add_l	arm_rot_l	elbow_flex_l	pro_sup_l	wrist_flex_l	wrist_dev_l
0	0	0	0	0	0.9399999999999999	0	0	0	0	0	0	0	0	0	0	0	0	0	0	0	0	0	0	0	0	0	0	0	0	89.99999999963507	0	0	0	0	0	0	89.99999999869995	0	0
0.02	0.7937861952951835	-1.966723583248362	89.74081266744389	0	0.9399999999999999	0	1.413670242137578	-3.923509978912882	-4.8957657521674	-9.328965247759781	-0.1628211593775367	0	0	0	-0.9487590190697149	-4.173064641316988	-3.442020872090137	-9.509726608251361	-0.1659760402784992	0	0	0	0	0	0	1.828322611760724	-1.828322611760724	0.3258454829335662	9.111087039418026	89.67415453585052	0	0	1.828322611760724	-1.828322611760724	0.3258454829335662	9.111087039418026	89.67415453497651	0	0
0.04	0.8021436403310037	-1.964311706089199	89.73701262776183	0	0.9399999999999999	0	1.420787285094938	-3.923891482250846	-4.90081524768011	-9.33029519687218	-0.1628443713684321	0	0	0	-0.939964552184738	-4.161673712143983	-3.446311203788194	-9.440252673795717	-0.1647634913779335	0	0	0	0	0	0	1.828825837794008	-1.828825837794008	0.3259386389127709	9.114136935736813	89.67406137987683	0	0	1.828825837794008	-1.828825837794008	0.3259386389127709	9.114136935736813	89.67406137900284	0	0
0.06	0.7946582842198989	-1.980498958496237	89.71712715218167	0	0.9399999999999999	0	1.430930530925219	-3.940054795458879	-4.888689918391767	-9.335921671601831	-0.1629425718777447	0	0	0	-0.8870656167586712	-4.112324899900002	-3.457103402170777	-9.448351400315905	-0.1649048408209293	0	0	0	0	0	0	1.829894003288813	-1.829894003288813	0.3261458132432543	9.122819110004155	89.67385420555873	0	0	1.829894003288813	-1.829894003288813	0.3261458132432543	9.122819110004155	89.67385420468477	0	0
0.08	0.7412524254062633	-2.00849645919088	89.70779775098599	0	0.9399999999999999	0	1.475867571242421	-4.013878204578332	-4.871713893269866	-9.348301850156524	-0.1631586467555089	0	0	0	-0.8455746606985871	-4.02902348841072	-3.454256125447038	-9.458691035815193	-0.165085301503848	0	0	0	0	0	0	1.834054470060962	-1.834054470060962	0.326950868075053	9.155095528681153	89.67304915077499	0	0	1.834054470060962	-1.834054470060962	0.326950868075053	9.155095528681153	89.6730491499012	0	0
0.1	0.7401876353126822	-2.003841188987133	89.71348876444705	0	0.9399999999999999	0	1.463197993586683	-4.023056082313452	-4.861020390380312	-9.349114123165956	-0.1631728235939486	0	0	0	-0.8082619437635036	-3.990066785980654	-3.448190115570763	-9.434326185136966	-0.1646600546377562	0	0	0	0	0	0	1.835252525304791	-1.835252525304791	0.3271820101182073	9.164284441643408	89.67281800874562	0	0	1.835252525304791	-1.835252525304791	0.3271820101182073	9.164284441643408	89.67281800787188	0	0
0.12	0.691547337270359	-2.011269711483209	89.71547293236651	0	0.9399999999999999	0	1.469013111556586	-4.125856744125197	-4.920156047988154	-9.363685525275935	-0.1634271425373998	0	0	0	-0.7757916019515877	-3.911113053484188	-3.42482008493041	-9.423380674857887	-0.1644690194450754	0	0	0	0	0	0	1.840039882569585	-1.840039882569585	0.3281218915513013	9.205809599773628	89.6718781273688	0	0	1.840039882569585	-1.840039882569585	0.3281218915513013	9.205809599773628	89.67187812649523	0	0
0.14	0.6665987632363836	-2.004434163195649	89.72669652478061	0	0.9399999999999999	0	1.465495225535975	-4.161978115329002	-4.924264281251889	-9.362668796818294	-0.1634093972782152	0	0	0	-0.7494646709339624	-3.844499737443962	-3.424766243929857	-9.395981467633758	-0.1639908130665781	0	0	0	0	0	0	3.409736279111659	-3.409736279111659	0.6189722584666757	13.85220235451569	89.38102777757656	0	0	3.409736279111659	-3.409736279111659	0.6189722584666757	13.85220235451569	89.38102777675745	0	0
